<?xml version="1.0" encoding="utf-8"?>
<!-- Generator: Adobe Illustrator 21.1.0, SVG Export Plug-In . SVG Version: 6.00 Build 0)  -->
<svg version="1.1" id="Layer_1" xmlns="http://www.w3.org/2000/svg" xmlns:xlink="http://www.w3.org/1999/xlink" x="0px" y="0px"
	 viewBox="0 0 486.2 614.2" style="enable-background:new 0 0 486.2 614.2;" xml:space="preserve">
<style type="text/css">
	.st0{fill:none;}
	.st1{fill:#05C6F1;}
	.st2{fill:#39B54A;}
</style>
<title>Final Vectorized Logo</title>
<path class="st0" d="M0.1,307.2c0-101,0-202-0.1-302.9C0,0.6,0.9,0,4.4,0c159.1,0.1,318.3,0.1,477.4,0c3.4,0,4.4,0.5,4.4,4.3
	c-0.1,202-0.1,403.9,0,605.9c0,3.5-0.8,4-4.1,4c-159.3-0.1-318.6-0.1-477.9,0C0,614.2,0,612.8,0,609.7C0.1,508.8,0.1,408,0.1,307.2z
	"/>
<path class="st1" d="M340.3,343.8c-1.2,29.5-9,55.8-31.4,76.1c-16.7,15.2-37,22.9-59,26c-30.2,4.2-78.6-10.4-98.5-49
	c-19-36.7-19.2-77.8,9.2-110.1c10.2-11.6,21.9-21.9,33-32.8c14.1-13.9,28.4-27.6,42.5-41.6c2.4-2.4,3.8-2.5,6.3,0
	c24.1,23.8,48.6,47.1,72.4,71.1C331.2,300.1,339.6,320.6,340.3,343.8z"/>
<path class="st1" d="M403.2,331.1c-21.6,0-24.4-2.1-30.3-22.7c-8-27.7-21.4-51.9-42.6-72c-29.8-28.3-58.8-57.6-88-86.6
	c-2.5-2.5-3.8-2.3-6.2,0.1c-31,30.7-62.1,61.4-93.2,92c-20.3,20-31.8,44.8-38.6,72c-2.4,9.6-10.6,18.3-22.2,17.4
	c-6.1-0.5-12.3-0.1-18.5,0c-2.5,0-3.4-0.5-3.3-3.4c1.4-34.2,13.1-64.5,33.6-91.6c8.3-11,18.7-19.9,28.3-29.6
	c19.6-19.5,39.5-38.7,59.2-58.1c18.3-18,36.6-36,54.9-54c2.1-2.1,3.2-2.4,5.5-0.1c27.2,27,54.5,53.8,81.9,80.7
	c18,17.8,36.8,34.9,53.9,53.5c20.8,22.5,34.2,50.9,38.4,81.3c0.8,5.8,1.2,11.6,1.9,17.3c0.3,3-0.6,4.3-3.8,4
	C410.5,330.9,406.8,331.1,403.2,331.1z"/>
<path class="st2" d="M73.2,343.2c18.7,0,21.5,2.3,24.1,19.5c8.4,58.6,51.7,106.1,109.3,119.8c80,19.4,161.3-34.4,174.6-115.5
	c0.6-3.9,1.1-7.9,1.8-11.9c1.2-7,6.4-11.6,13.4-11.8c6-0.2,12,0.1,18-0.1c2.8-0.1,3.5,1.1,3.3,3.6c-2.4,44.4-13.8,85.3-44.4,119.1
	c-22.8,25.1-51.4,40.8-83.7,50.1c-17.6,5.1-35.7,9.2-54.1,7.9c-46.9-3.2-89.2-18.2-123.8-51.2c-23-22-37-49.3-44.5-80.1
	c-3.5-14.6-5.6-29.4-6.3-44.4c-0.2-4,0.9-5.4,4.9-4.9C68.2,343.4,70.7,343.4,73.2,343.2z"/>
</svg>
